<?xml version="1.0" encoding="UTF-8" standalone="no"?>
<svg xmlns="http://www.w3.org/2000/svg" xmlns:xlink="http://www.w3.org/1999/xlink" contentScriptType="application/ecmascript" contentStyleType="text/css" height="731px" preserveAspectRatio="none" style="width:1313px;height:731px;" version="1.1" viewBox="0 0 1313 731" width="1313px" zoomAndPan="magnify"><defs><filter height="300%" id="fwc7cqj3qjlii" width="300%" x="-1" y="-1"><feGaussianBlur result="blurOut" stdDeviation="2.0"/><feColorMatrix in="blurOut" result="blurOut2" type="matrix" values="0 0 0 0 0 0 0 0 0 0 0 0 0 0 0 0 0 0 .4 0"/><feOffset dx="4.0" dy="4.0" in="blurOut2" result="blurOut3"/><feBlend in="SourceGraphic" in2="blurOut3" mode="normal"/></filter></defs><g><path d="M604.9375,10 L604.9375,35.1328 A0,0 0 0 0 604.9375,35.1328 L853.9375,35.1328 A0,0 0 0 0 853.9375,35.1328 L853.9375,28 L873.9375,22.5664 L853.9375,20 L853.9375,20 L843.9375,10 L604.9375,10 A0,0 0 0 0 604.9375,10 " fill="#FBFB77" filter="url(#fwc7cqj3qjlii)" style="stroke: #A80036; stroke-width: 1.0;"/><path d="M843.9375,10 L843.9375,20 L853.9375,20 L843.9375,10 " fill="#FBFB77" style="stroke: #A80036; stroke-width: 1.0;"/><text fill="#000000" font-family="sans-serif" font-size="13" lengthAdjust="spacingAndGlyphs" textLength="228" x="610.9375" y="27.0669">"Integrating Geodata in uMap" Start</text><ellipse cx="883.9375" cy="22.5664" fill="#000000" filter="url(#fwc7cqj3qjlii)" rx="10" ry="10" style="stroke: none; stroke-width: 1.0;"/><rect fill="#FEFECE" filter="url(#fwc7cqj3qjlii)" height="61.9063" rx="12.5" ry="12.5" style="stroke: #A80036; stroke-width: 1.5;" width="270" x="748.9375" y="55.1328"/><text fill="#000000" font-family="sans-serif" font-size="12" lengthAdjust="spacingAndGlyphs" textLength="66" x="758.9375" y="76.2715">Chapter 1:</text><text fill="#000000" font-family="sans-serif" font-size="12" lengthAdjust="spacingAndGlyphs" textLength="180" x="758.9375" y="90.2402">Integrating Geodata in uMap</text><text fill="#000000" font-family="sans-serif" font-size="12" lengthAdjust="spacingAndGlyphs" textLength="250" x="758.9375" y="104.209">(Search tags with taginfo,wiki,tagfinder)</text><polygon fill="#FEFECE" filter="url(#fwc7cqj3qjlii)" points="826.9375,137.0391,940.9375,137.0391,952.9375,162.6484,940.9375,188.2578,826.9375,188.2578,814.9375,162.6484,826.9375,137.0391" style="stroke: #A80036; stroke-width: 1.5;"/><text fill="#000000" font-family="sans-serif" font-size="11" lengthAdjust="spacingAndGlyphs" textLength="0" x="830.9375" y="147.2495"/><text fill="#000000" font-family="sans-serif" font-size="11" lengthAdjust="spacingAndGlyphs" textLength="110" x="826.9375" y="160.0542">Data exists already</text><text fill="#000000" font-family="sans-serif" font-size="11" lengthAdjust="spacingAndGlyphs" textLength="46" x="826.9375" y="172.8589">in OSM?</text><text fill="#000000" font-family="sans-serif" font-size="11" lengthAdjust="spacingAndGlyphs" textLength="0" x="830.9375" y="185.6636"/><text fill="#000000" font-family="sans-serif" font-size="11" lengthAdjust="spacingAndGlyphs" textLength="14" x="800.9375" y="160.0542">no</text><text fill="#000000" font-family="sans-serif" font-size="11" lengthAdjust="spacingAndGlyphs" textLength="20" x="952.9375" y="160.0542">yes</text><polygon fill="#FEFECE" filter="url(#fwc7cqj3qjlii)" points="590.125,198.2578,696.125,198.2578,708.125,223.8672,696.125,249.4766,590.125,249.4766,578.125,223.8672,590.125,198.2578" style="stroke: #A80036; stroke-width: 1.5;"/><text fill="#000000" font-family="sans-serif" font-size="11" lengthAdjust="spacingAndGlyphs" textLength="0" x="594.125" y="208.4683"/><text fill="#000000" font-family="sans-serif" font-size="11" lengthAdjust="spacingAndGlyphs" textLength="102" x="590.125" y="221.2729">Found as external</text><text fill="#000000" font-family="sans-serif" font-size="11" lengthAdjust="spacingAndGlyphs" textLength="74" x="590.125" y="234.0776">data source?</text><text fill="#000000" font-family="sans-serif" font-size="11" lengthAdjust="spacingAndGlyphs" textLength="0" x="594.125" y="246.8823"/><text fill="#000000" font-family="sans-serif" font-size="11" lengthAdjust="spacingAndGlyphs" textLength="131" x="447.125" y="221.2729">no, enter data yourself</text><text fill="#000000" font-family="sans-serif" font-size="11" lengthAdjust="spacingAndGlyphs" textLength="20" x="708.125" y="221.2729">yes</text><polygon fill="#FEFECE" filter="url(#fwc7cqj3qjlii)" points="403.75,259.4766,526.75,259.4766,538.75,285.0859,526.75,310.6953,403.75,310.6953,391.75,285.0859,403.75,259.4766" style="stroke: #A80036; stroke-width: 1.5;"/><text fill="#000000" font-family="sans-serif" font-size="11" lengthAdjust="spacingAndGlyphs" textLength="0" x="407.75" y="269.687"/><text fill="#000000" font-family="sans-serif" font-size="11" lengthAdjust="spacingAndGlyphs" textLength="106" x="403.75" y="282.4917">Can wait until data</text><text fill="#000000" font-family="sans-serif" font-size="11" lengthAdjust="spacingAndGlyphs" textLength="123" x="403.75" y="295.2964">has been processed?</text><text fill="#000000" font-family="sans-serif" font-size="11" lengthAdjust="spacingAndGlyphs" textLength="0" x="407.75" y="308.1011"/><text fill="#000000" font-family="sans-serif" font-size="11" lengthAdjust="spacingAndGlyphs" textLength="14" x="377.75" y="282.4917">no</text><text fill="#000000" font-family="sans-serif" font-size="11" lengthAdjust="spacingAndGlyphs" textLength="20" x="538.75" y="282.4917">yes</text><polygon fill="#FEFECE" filter="url(#fwc7cqj3qjlii)" points="232.5,320.6953,374.5,320.6953,386.5,346.3047,374.5,371.9141,232.5,371.9141,220.5,346.3047,232.5,320.6953" style="stroke: #A80036; stroke-width: 1.5;"/><text fill="#000000" font-family="sans-serif" font-size="11" lengthAdjust="spacingAndGlyphs" textLength="0" x="236.5" y="330.9058"/><text fill="#000000" font-family="sans-serif" font-size="11" lengthAdjust="spacingAndGlyphs" textLength="138" x="232.5" y="343.7104">Many objects (e.g. more</text><text fill="#000000" font-family="sans-serif" font-size="11" lengthAdjust="spacingAndGlyphs" textLength="78" x="232.5" y="356.5151">than 10.000)?</text><text fill="#000000" font-family="sans-serif" font-size="11" lengthAdjust="spacingAndGlyphs" textLength="0" x="236.5" y="369.3198"/><text fill="#000000" font-family="sans-serif" font-size="11" lengthAdjust="spacingAndGlyphs" textLength="14" x="206.5" y="343.7104">no</text><text fill="#000000" font-family="sans-serif" font-size="11" lengthAdjust="spacingAndGlyphs" textLength="20" x="386.5" y="343.7104">yes</text><polygon fill="#FEFECE" filter="url(#fwc7cqj3qjlii)" points="105,381.9141,235,381.9141,247,407.5234,235,433.1328,105,433.1328,93,407.5234,105,381.9141" style="stroke: #A80036; stroke-width: 1.5;"/><text fill="#000000" font-family="sans-serif" font-size="11" lengthAdjust="spacingAndGlyphs" textLength="0" x="109" y="392.1245"/><text fill="#000000" font-family="sans-serif" font-size="11" lengthAdjust="spacingAndGlyphs" textLength="126" x="105" y="404.9292">Want to edit attributes</text><text fill="#000000" font-family="sans-serif" font-size="11" lengthAdjust="spacingAndGlyphs" textLength="72" x="105" y="417.7339">often/easily?</text><text fill="#000000" font-family="sans-serif" font-size="11" lengthAdjust="spacingAndGlyphs" textLength="0" x="109" y="430.5386"/><text fill="#000000" font-family="sans-serif" font-size="11" lengthAdjust="spacingAndGlyphs" textLength="14" x="79" y="404.9292">no</text><text fill="#000000" font-family="sans-serif" font-size="11" lengthAdjust="spacingAndGlyphs" textLength="20" x="247" y="404.9292">yes</text><rect fill="#FEFECE" filter="url(#fwc7cqj3qjlii)" height="61.9063" rx="12.5" ry="12.5" style="stroke: #A80036; stroke-width: 1.5;" width="146" x="10" y="443.1328"/><text fill="#000000" font-family="sans-serif" font-size="12" lengthAdjust="spacingAndGlyphs" textLength="78" x="20" y="464.2715">Chapter 2.1:</text><text fill="#000000" font-family="sans-serif" font-size="12" lengthAdjust="spacingAndGlyphs" textLength="126" x="20" y="478.2402">Enter data manually</text><text fill="#000000" font-family="sans-serif" font-size="12" lengthAdjust="spacingAndGlyphs" textLength="41" x="20" y="492.209">in Map</text><rect fill="#FEFECE" filter="url(#fwc7cqj3qjlii)" height="75.875" rx="12.5" ry="12.5" style="stroke: #A80036; stroke-width: 1.5;" width="140" x="187" y="443.1328"/><text fill="#000000" font-family="sans-serif" font-size="12" lengthAdjust="spacingAndGlyphs" textLength="78" x="197" y="464.2715">Chapter 2.2:</text><text fill="#000000" font-family="sans-serif" font-size="12" lengthAdjust="spacingAndGlyphs" textLength="120" x="197" y="478.2402">Enter geodata with</text><text fill="#000000" font-family="sans-serif" font-size="12" lengthAdjust="spacingAndGlyphs" textLength="119" x="197" y="492.209">geojson.io or QGIS,</text><text fill="#000000" font-family="sans-serif" font-size="12" lengthAdjust="spacingAndGlyphs" textLength="112" x="197" y="506.1777">&gt; Export GeoJSON</text><polygon fill="#FEFECE" filter="url(#fwc7cqj3qjlii)" points="170,525.0078,182,537.0078,170,549.0078,158,537.0078,170,525.0078" style="stroke: #A80036; stroke-width: 1.5;"/><rect fill="#FEFECE" filter="url(#fwc7cqj3qjlii)" height="75.875" rx="12.5" ry="12.5" style="stroke: #A80036; stroke-width: 1.5;" width="160" x="357" y="381.9141"/><text fill="#000000" font-family="sans-serif" font-size="12" lengthAdjust="spacingAndGlyphs" textLength="78" x="367" y="403.0527">Chapter 2.2:</text><text fill="#000000" font-family="sans-serif" font-size="12" lengthAdjust="spacingAndGlyphs" textLength="139" x="367" y="417.0215">Enter geodata in QGIS</text><text fill="#000000" font-family="sans-serif" font-size="12" lengthAdjust="spacingAndGlyphs" textLength="140" x="367" y="430.9902">"Introduction to QGIS",</text><text fill="#000000" font-family="sans-serif" font-size="12" lengthAdjust="spacingAndGlyphs" textLength="112" x="367" y="444.959">&gt; Export GeoJSON</text><polygon fill="#FEFECE" filter="url(#fwc7cqj3qjlii)" points="303.5,555.0078,315.5,567.0078,303.5,579.0078,291.5,567.0078,303.5,555.0078" style="stroke: #A80036; stroke-width: 1.5;"/><rect fill="#FEFECE" filter="url(#fwc7cqj3qjlii)" height="89.8438" rx="12.5" ry="12.5" style="stroke: #A80036; stroke-width: 1.5;" width="160" x="547" y="320.6953"/><text fill="#000000" font-family="sans-serif" font-size="12" lengthAdjust="spacingAndGlyphs" textLength="78" x="557" y="341.834">Chapter 2.3:</text><text fill="#000000" font-family="sans-serif" font-size="12" lengthAdjust="spacingAndGlyphs" textLength="82" x="557" y="355.8027">Enter data in</text><text fill="#000000" font-family="sans-serif" font-size="12" lengthAdjust="spacingAndGlyphs" textLength="98" x="557" y="369.7715">OpenStreetMap</text><text fill="#000000" font-family="sans-serif" font-size="12" lengthAdjust="spacingAndGlyphs" textLength="140" x="557" y="383.7402">"Edit OpenStreetMap",</text><text fill="#000000" font-family="sans-serif" font-size="12" lengthAdjust="spacingAndGlyphs" textLength="84" x="557" y="397.709">&gt; Goto Start"</text><polygon fill="#FEFECE" filter="url(#fwc7cqj3qjlii)" points="465.25,585.0078,477.25,597.0078,465.25,609.0078,453.25,597.0078,465.25,585.0078" style="stroke: #A80036; stroke-width: 1.5;"/><rect fill="#FEFECE" filter="url(#fwc7cqj3qjlii)" height="61.9063" rx="12.5" ry="12.5" style="stroke: #A80036; stroke-width: 1.5;" width="168" x="737" y="259.4766"/><text fill="#000000" font-family="sans-serif" font-size="12" lengthAdjust="spacingAndGlyphs" textLength="66" x="747" y="280.6152">Chapter 3:</text><text fill="#000000" font-family="sans-serif" font-size="12" lengthAdjust="spacingAndGlyphs" textLength="144" x="747" y="294.584">Data exists as external</text><text fill="#000000" font-family="sans-serif" font-size="12" lengthAdjust="spacingAndGlyphs" textLength="98" x="747" y="308.5527">data source/file</text><polygon fill="#FEFECE" filter="url(#fwc7cqj3qjlii)" points="643.125,615.0078,655.125,627.0078,643.125,639.0078,631.125,627.0078,643.125,615.0078" style="stroke: #A80036; stroke-width: 1.5;"/><polygon fill="#FEFECE" filter="url(#fwc7cqj3qjlii)" points="1074.25,198.2578,1175.25,198.2578,1187.25,223.8672,1175.25,249.4766,1074.25,249.4766,1062.25,223.8672,1074.25,198.2578" style="stroke: #A80036; stroke-width: 1.5;"/><text fill="#000000" font-family="sans-serif" font-size="11" lengthAdjust="spacingAndGlyphs" textLength="0" x="1078.25" y="208.4683"/><text fill="#000000" font-family="sans-serif" font-size="11" lengthAdjust="spacingAndGlyphs" textLength="97" x="1074.25" y="221.2729">Reload OSM data</text><text fill="#000000" font-family="sans-serif" font-size="11" lengthAdjust="spacingAndGlyphs" textLength="55" x="1074.25" y="234.0776">any time?</text><text fill="#000000" font-family="sans-serif" font-size="11" lengthAdjust="spacingAndGlyphs" textLength="0" x="1078.25" y="246.8823"/><text fill="#000000" font-family="sans-serif" font-size="11" lengthAdjust="spacingAndGlyphs" textLength="81" x="981.25" y="221.2729">no/"snapshot"</text><text fill="#000000" font-family="sans-serif" font-size="11" lengthAdjust="spacingAndGlyphs" textLength="20" x="1187.25" y="221.2729">yes</text><rect fill="#FEFECE" filter="url(#fwc7cqj3qjlii)" height="75.875" rx="12.5" ry="12.5" style="stroke: #A80036; stroke-width: 1.5;" width="171" x="945" y="259.4766"/><text fill="#000000" font-family="sans-serif" font-size="12" lengthAdjust="spacingAndGlyphs" textLength="78" x="955" y="280.6152">Chapter 4.1:</text><text fill="#000000" font-family="sans-serif" font-size="12" lengthAdjust="spacingAndGlyphs" textLength="151" x="955" y="294.584">A snapshot of OSM data</text><text fill="#000000" font-family="sans-serif" font-size="12" lengthAdjust="spacingAndGlyphs" textLength="87" x="955" y="308.5527">&gt; Export data</text><text fill="#000000" font-family="sans-serif" font-size="12" lengthAdjust="spacingAndGlyphs" textLength="68" x="955" y="322.5215">&gt; GeoJSON</text><rect fill="#FEFECE" filter="url(#fwc7cqj3qjlii)" height="89.8438" rx="12.5" ry="12.5" style="stroke: #A80036; stroke-width: 1.5;" width="166" x="1136" y="259.4766"/><text fill="#000000" font-family="sans-serif" font-size="12" lengthAdjust="spacingAndGlyphs" textLength="74" x="1146" y="280.6152">Chapter 4.2</text><text fill="#000000" font-family="sans-serif" font-size="12" lengthAdjust="spacingAndGlyphs" textLength="109" x="1146" y="294.584">Keep data always</text><text fill="#000000" font-family="sans-serif" font-size="12" lengthAdjust="spacingAndGlyphs" textLength="66" x="1146" y="308.5527">up-to-date</text><text fill="#000000" font-family="sans-serif" font-size="12" lengthAdjust="spacingAndGlyphs" textLength="94" x="1146" y="322.5215">&gt; Export Query</text><text fill="#000000" font-family="sans-serif" font-size="12" lengthAdjust="spacingAndGlyphs" textLength="146" x="1146" y="336.4902">&gt; Compact OverpassQL</text><polygon fill="#FEFECE" filter="url(#fwc7cqj3qjlii)" points="1124.75,355.3203,1136.75,367.3203,1124.75,379.3203,1112.75,367.3203,1124.75,355.3203" style="stroke: #A80036; stroke-width: 1.5;"/><polygon fill="#FEFECE" filter="url(#fwc7cqj3qjlii)" points="883.9375,645.0078,895.9375,657.0078,883.9375,669.0078,871.9375,657.0078,883.9375,645.0078" style="stroke: #A80036; stroke-width: 1.5;"/><path d="M396.9375,679.0078 L396.9375,719.2734 A0,0 0 0 0 396.9375,719.2734 L853.9375,719.2734 A0,0 0 0 0 853.9375,719.2734 L853.9375,703.1406 L873.9375,699.1406 L853.9375,695.1406 L853.9375,689.0078 L843.9375,679.0078 L396.9375,679.0078 A0,0 0 0 0 396.9375,679.0078 " fill="#FBFB77" filter="url(#fwc7cqj3qjlii)" style="stroke: #A80036; stroke-width: 1.0;"/><path d="M843.9375,679.0078 L843.9375,689.0078 L853.9375,689.0078 L843.9375,679.0078 " fill="#FBFB77" style="stroke: #A80036; stroke-width: 1.0;"/><text fill="#000000" font-family="sans-serif" font-size="13" lengthAdjust="spacingAndGlyphs" textLength="436" x="402.9375" y="696.0747">Import in uMap (or integrate as remote data). Continue according to</text><text fill="#000000" font-family="sans-serif" font-size="13" lengthAdjust="spacingAndGlyphs" textLength="390" x="402.9375" y="711.2075">"Integrating geodata in uMap" above an/or to the instructions</text><ellipse cx="883.9375" cy="699.1406" fill="none" filter="url(#fwc7cqj3qjlii)" rx="10" ry="10" style="stroke: #000000; stroke-width: 1.0;"/><ellipse cx="884.4375" cy="699.6406" fill="#000000" filter="url(#fwc7cqj3qjlii)" rx="6" ry="6" style="stroke: none; stroke-width: 1.0;"/><line style="stroke: #A80036; stroke-width: 1.5;" x1="883.9375" x2="883.9375" y1="32.5664" y2="55.1328"/><polygon fill="#A80036" points="879.9375,45.1328,883.9375,55.1328,887.9375,45.1328,883.9375,49.1328" style="stroke: #A80036; stroke-width: 1.0;"/><line style="stroke: #A80036; stroke-width: 1.5;" x1="93" x2="83" y1="407.5234" y2="407.5234"/><line style="stroke: #A80036; stroke-width: 1.5;" x1="83" x2="83" y1="407.5234" y2="443.1328"/><polygon fill="#A80036" points="79,433.1328,83,443.1328,87,433.1328,83,437.1328" style="stroke: #A80036; stroke-width: 1.0;"/><line style="stroke: #A80036; stroke-width: 1.5;" x1="247" x2="257" y1="407.5234" y2="407.5234"/><line style="stroke: #A80036; stroke-width: 1.5;" x1="257" x2="257" y1="407.5234" y2="443.1328"/><polygon fill="#A80036" points="253,433.1328,257,443.1328,261,433.1328,257,437.1328" style="stroke: #A80036; stroke-width: 1.0;"/><line style="stroke: #A80036; stroke-width: 1.5;" x1="83" x2="83" y1="505.0391" y2="537.0078"/><line style="stroke: #A80036; stroke-width: 1.5;" x1="83" x2="158" y1="537.0078" y2="537.0078"/><polygon fill="#A80036" points="148,533.0078,158,537.0078,148,541.0078,152,537.0078" style="stroke: #A80036; stroke-width: 1.0;"/><line style="stroke: #A80036; stroke-width: 1.5;" x1="257" x2="257" y1="519.0078" y2="537.0078"/><line style="stroke: #A80036; stroke-width: 1.5;" x1="257" x2="182" y1="537.0078" y2="537.0078"/><polygon fill="#A80036" points="192,533.0078,182,537.0078,192,541.0078,188,537.0078" style="stroke: #A80036; stroke-width: 1.0;"/><line style="stroke: #A80036; stroke-width: 1.5;" x1="220.5" x2="170" y1="346.3047" y2="346.3047"/><line style="stroke: #A80036; stroke-width: 1.5;" x1="170" x2="170" y1="346.3047" y2="381.9141"/><polygon fill="#A80036" points="166,371.9141,170,381.9141,174,371.9141,170,375.9141" style="stroke: #A80036; stroke-width: 1.0;"/><line style="stroke: #A80036; stroke-width: 1.5;" x1="386.5" x2="437" y1="346.3047" y2="346.3047"/><line style="stroke: #A80036; stroke-width: 1.5;" x1="437" x2="437" y1="346.3047" y2="381.9141"/><polygon fill="#A80036" points="433,371.9141,437,381.9141,441,371.9141,437,375.9141" style="stroke: #A80036; stroke-width: 1.0;"/><line style="stroke: #A80036; stroke-width: 1.5;" x1="170" x2="170" y1="549.0078" y2="567.0078"/><line style="stroke: #A80036; stroke-width: 1.5;" x1="170" x2="291.5" y1="567.0078" y2="567.0078"/><polygon fill="#A80036" points="281.5,563.0078,291.5,567.0078,281.5,571.0078,285.5,567.0078" style="stroke: #A80036; stroke-width: 1.0;"/><line style="stroke: #A80036; stroke-width: 1.5;" x1="437" x2="437" y1="457.7891" y2="567.0078"/><line style="stroke: #A80036; stroke-width: 1.5;" x1="437" x2="315.5" y1="567.0078" y2="567.0078"/><polygon fill="#A80036" points="325.5,563.0078,315.5,567.0078,325.5,571.0078,321.5,567.0078" style="stroke: #A80036; stroke-width: 1.0;"/><line style="stroke: #A80036; stroke-width: 1.5;" x1="391.75" x2="303.5" y1="285.0859" y2="285.0859"/><line style="stroke: #A80036; stroke-width: 1.5;" x1="303.5" x2="303.5" y1="285.0859" y2="320.6953"/><polygon fill="#A80036" points="299.5,310.6953,303.5,320.6953,307.5,310.6953,303.5,314.6953" style="stroke: #A80036; stroke-width: 1.0;"/><line style="stroke: #A80036; stroke-width: 1.5;" x1="538.75" x2="627" y1="285.0859" y2="285.0859"/><line style="stroke: #A80036; stroke-width: 1.5;" x1="627" x2="627" y1="285.0859" y2="320.6953"/><polygon fill="#A80036" points="623,310.6953,627,320.6953,631,310.6953,627,314.6953" style="stroke: #A80036; stroke-width: 1.0;"/><line style="stroke: #A80036; stroke-width: 1.5;" x1="303.5" x2="303.5" y1="579.0078" y2="597.0078"/><line style="stroke: #A80036; stroke-width: 1.5;" x1="303.5" x2="453.25" y1="597.0078" y2="597.0078"/><polygon fill="#A80036" points="443.25,593.0078,453.25,597.0078,443.25,601.0078,447.25,597.0078" style="stroke: #A80036; stroke-width: 1.0;"/><line style="stroke: #A80036; stroke-width: 1.5;" x1="627" x2="627" y1="410.5391" y2="597.0078"/><line style="stroke: #A80036; stroke-width: 1.5;" x1="627" x2="477.25" y1="597.0078" y2="597.0078"/><polygon fill="#A80036" points="487.25,593.0078,477.25,597.0078,487.25,601.0078,483.25,597.0078" style="stroke: #A80036; stroke-width: 1.0;"/><line style="stroke: #A80036; stroke-width: 1.5;" x1="578.125" x2="465.25" y1="223.8672" y2="223.8672"/><line style="stroke: #A80036; stroke-width: 1.5;" x1="465.25" x2="465.25" y1="223.8672" y2="259.4766"/><polygon fill="#A80036" points="461.25,249.4766,465.25,259.4766,469.25,249.4766,465.25,253.4766" style="stroke: #A80036; stroke-width: 1.0;"/><line style="stroke: #A80036; stroke-width: 1.5;" x1="708.125" x2="821" y1="223.8672" y2="223.8672"/><line style="stroke: #A80036; stroke-width: 1.5;" x1="821" x2="821" y1="223.8672" y2="259.4766"/><polygon fill="#A80036" points="817,249.4766,821,259.4766,825,249.4766,821,253.4766" style="stroke: #A80036; stroke-width: 1.0;"/><line style="stroke: #A80036; stroke-width: 1.5;" x1="465.25" x2="465.25" y1="609.0078" y2="627.0078"/><line style="stroke: #A80036; stroke-width: 1.5;" x1="465.25" x2="631.125" y1="627.0078" y2="627.0078"/><polygon fill="#A80036" points="621.125,623.0078,631.125,627.0078,621.125,631.0078,625.125,627.0078" style="stroke: #A80036; stroke-width: 1.0;"/><line style="stroke: #A80036; stroke-width: 1.5;" x1="821" x2="821" y1="321.3828" y2="627.0078"/><line style="stroke: #A80036; stroke-width: 1.5;" x1="821" x2="655.125" y1="627.0078" y2="627.0078"/><polygon fill="#A80036" points="665.125,623.0078,655.125,627.0078,665.125,631.0078,661.125,627.0078" style="stroke: #A80036; stroke-width: 1.0;"/><line style="stroke: #A80036; stroke-width: 1.5;" x1="1062.25" x2="1030.5" y1="223.8672" y2="223.8672"/><line style="stroke: #A80036; stroke-width: 1.5;" x1="1030.5" x2="1030.5" y1="223.8672" y2="259.4766"/><polygon fill="#A80036" points="1026.5,249.4766,1030.5,259.4766,1034.5,249.4766,1030.5,253.4766" style="stroke: #A80036; stroke-width: 1.0;"/><line style="stroke: #A80036; stroke-width: 1.5;" x1="1187.25" x2="1219" y1="223.8672" y2="223.8672"/><line style="stroke: #A80036; stroke-width: 1.5;" x1="1219" x2="1219" y1="223.8672" y2="259.4766"/><polygon fill="#A80036" points="1215,249.4766,1219,259.4766,1223,249.4766,1219,253.4766" style="stroke: #A80036; stroke-width: 1.0;"/><line style="stroke: #A80036; stroke-width: 1.5;" x1="1030.5" x2="1030.5" y1="335.3516" y2="367.3203"/><line style="stroke: #A80036; stroke-width: 1.5;" x1="1030.5" x2="1112.75" y1="367.3203" y2="367.3203"/><polygon fill="#A80036" points="1102.75,363.3203,1112.75,367.3203,1102.75,371.3203,1106.75,367.3203" style="stroke: #A80036; stroke-width: 1.0;"/><line style="stroke: #A80036; stroke-width: 1.5;" x1="1219" x2="1219" y1="349.3203" y2="367.3203"/><line style="stroke: #A80036; stroke-width: 1.5;" x1="1219" x2="1136.75" y1="367.3203" y2="367.3203"/><polygon fill="#A80036" points="1146.75,363.3203,1136.75,367.3203,1146.75,371.3203,1142.75,367.3203" style="stroke: #A80036; stroke-width: 1.0;"/><line style="stroke: #A80036; stroke-width: 1.5;" x1="814.9375" x2="643.125" y1="162.6484" y2="162.6484"/><line style="stroke: #A80036; stroke-width: 1.5;" x1="643.125" x2="643.125" y1="162.6484" y2="198.2578"/><polygon fill="#A80036" points="639.125,188.2578,643.125,198.2578,647.125,188.2578,643.125,192.2578" style="stroke: #A80036; stroke-width: 1.0;"/><line style="stroke: #A80036; stroke-width: 1.5;" x1="952.9375" x2="1124.75" y1="162.6484" y2="162.6484"/><line style="stroke: #A80036; stroke-width: 1.5;" x1="1124.75" x2="1124.75" y1="162.6484" y2="198.2578"/><polygon fill="#A80036" points="1120.75,188.2578,1124.75,198.2578,1128.75,188.2578,1124.75,192.2578" style="stroke: #A80036; stroke-width: 1.0;"/><line style="stroke: #A80036; stroke-width: 1.5;" x1="643.125" x2="643.125" y1="639.0078" y2="657.0078"/><line style="stroke: #A80036; stroke-width: 1.5;" x1="643.125" x2="871.9375" y1="657.0078" y2="657.0078"/><polygon fill="#A80036" points="861.9375,653.0078,871.9375,657.0078,861.9375,661.0078,865.9375,657.0078" style="stroke: #A80036; stroke-width: 1.0;"/><line style="stroke: #A80036; stroke-width: 1.5;" x1="1124.75" x2="1124.75" y1="379.3203" y2="657.0078"/><line style="stroke: #A80036; stroke-width: 1.5;" x1="1124.75" x2="895.9375" y1="657.0078" y2="657.0078"/><polygon fill="#A80036" points="905.9375,653.0078,895.9375,657.0078,905.9375,661.0078,901.9375,657.0078" style="stroke: #A80036; stroke-width: 1.0;"/><line style="stroke: #A80036; stroke-width: 1.5;" x1="883.9375" x2="883.9375" y1="117.0391" y2="137.0391"/><polygon fill="#A80036" points="879.9375,127.0391,883.9375,137.0391,887.9375,127.0391,883.9375,131.0391" style="stroke: #A80036; stroke-width: 1.0;"/><line style="stroke: #A80036; stroke-width: 1.5;" x1="883.9375" x2="883.9375" y1="669.0078" y2="689.1406"/><polygon fill="#A80036" points="879.9375,679.1406,883.9375,689.1406,887.9375,679.1406,883.9375,683.1406" style="stroke: #A80036; stroke-width: 1.0;"/><!--
@startuml
start
note left
  "Integrating Geodata in uMap" Start
end note

:Chapter 1:\nIntegrating Geodata in uMap \n(Search tags with taginfo,wiki,tagfinder);

if (\nData exists already \nin OSM?\n) then (no)
  if (\nFound as external \ndata source?\n) then (no, enter data yourself)
    if (\nCan wait until data \nhas been processed?\n) then (no)
      if (\nMany objects (e.g. more \nthan 10.000)?\n) then (no)
        if (\nWant to edit attributes \noften/easily?\n) then (no)
          :Chapter 2.1:\nEnter data manually\nin Map;
        else (yes)
          :Chapter 2.2:\nEnter geodata with\ngeojson.io or QGIS,\n> Export GeoJSON;
        endif
      else (yes)
        :Chapter 2.2:\nEnter geodata in QGIS\n"Introduction to QGIS",\n> Export GeoJSON;
      endif
    else (yes)
      :Chapter 2.3:\nEnter data in \nOpenStreetMap \n"Edit OpenStreetMap",\n> Goto Start";
    endif
  else (yes)
    :Chapter 3:\nData exists as external \ndata source/file;
  endif
else (yes)
  if (\nReload OSM data \nany time?\n) then (no/"snapshot")
    :Chapter 4.1:\nA snapshot of OSM data\n> Export data\n> GeoJSON;
  else (yes)
    :Chapter 4.2\nKeep data always \nup-to-date\n> Export Query \n> Compact OverpassQL;
  endif
endif

stop
note left
  Import in uMap (or integrate as remote data). Continue according to
  "Integrating geodata in uMap" above an/or to the instructions 
end note
@enduml

PlantUML version 1.2019.00(Sun Jan 13 15:46:42 UTC 2019)
(GPL source distribution)
Java Runtime: Java(TM) SE Runtime Environment
JVM: Java HotSpot(TM) 64-Bit Server VM
Java Version: 1.7.0_25-b15
Operating System: Linux
Default Encoding: UTF-8
Language: en
Country: US
--></g></svg>