<?xml version="1.0" encoding="UTF-8" standalone="no"?>
<svg xmlns="http://www.w3.org/2000/svg" xmlns:xlink="http://www.w3.org/1999/xlink" contentScriptType="application/ecmascript" contentStyleType="text/css" height="678px" preserveAspectRatio="none" style="width:1286px;height:678px;" version="1.1" viewBox="0 0 1286 678" width="1286px" zoomAndPan="magnify"><defs><filter height="300%" id="frl13igro5w01" width="300%" x="-1" y="-1"><feGaussianBlur result="blurOut" stdDeviation="2.0"/><feColorMatrix in="blurOut" result="blurOut2" type="matrix" values="0 0 0 0 0 0 0 0 0 0 0 0 0 0 0 0 0 0 .4 0"/><feOffset dx="4.0" dy="4.0" in="blurOut2" result="blurOut3"/><feBlend in="SourceGraphic" in2="blurOut3" mode="normal"/></filter></defs><g><path d="M583.2969,10 L583.2969,35.1328 A0,0 0 0 0 583.2969,35.1328 L833.2969,35.1328 A0,0 0 0 0 833.2969,35.1328 L833.2969,28 L853.2969,22.5664 L833.2969,20 L833.2969,20 L823.2969,10 L583.2969,10 A0,0 0 0 0 583.2969,10 " fill="#FBFB77" filter="url(#frl13igro5w01)" style="stroke: #A80036; stroke-width: 1.0;"/><path d="M823.2969,10 L823.2969,20 L833.2969,20 L823.2969,10 " fill="#FBFB77" style="stroke: #A80036; stroke-width: 1.0;"/><text fill="#000000" font-family="sans-serif" font-size="13" lengthAdjust="spacingAndGlyphs" textLength="229" x="589.2969" y="27.0669">"Geodaten in uMap einbinden" Start</text><ellipse cx="863.2969" cy="22.5664" fill="#000000" filter="url(#frl13igro5w01)" rx="10" ry="10" style="stroke: none; stroke-width: 1.0;"/><rect fill="#FEFECE" filter="url(#frl13igro5w01)" height="61.9063" rx="12.5" ry="12.5" style="stroke: #A80036; stroke-width: 1.5;" width="135" x="795.7969" y="55.1328"/><text fill="#000000" font-family="sans-serif" font-size="12" lengthAdjust="spacingAndGlyphs" textLength="64" x="805.7969" y="76.2715">(Kapitel 1)</text><text fill="#000000" font-family="sans-serif" font-size="12" lengthAdjust="spacingAndGlyphs" textLength="62" x="805.7969" y="90.2402">Geodaten</text><text fill="#000000" font-family="sans-serif" font-size="12" lengthAdjust="spacingAndGlyphs" textLength="115" x="805.7969" y="104.209">in uMap einbinden</text><polygon fill="#FEFECE" filter="url(#frl13igro5w01)" points="789.7969,137.0391,936.7969,137.0391,948.7969,156.2461,936.7969,175.4531,789.7969,175.4531,777.7969,156.2461,789.7969,137.0391" style="stroke: #A80036; stroke-width: 1.5;"/><text fill="#000000" font-family="sans-serif" font-size="11" lengthAdjust="spacingAndGlyphs" textLength="0" x="793.7969" y="147.2495"/><text fill="#000000" font-family="sans-serif" font-size="11" lengthAdjust="spacingAndGlyphs" textLength="147" x="789.7969" y="160.0542">Daten in OSM vorhanden?</text><text fill="#000000" font-family="sans-serif" font-size="11" lengthAdjust="spacingAndGlyphs" textLength="0" x="793.7969" y="172.8589"/><text fill="#000000" font-family="sans-serif" font-size="11" lengthAdjust="spacingAndGlyphs" textLength="24" x="753.7969" y="153.6519">nein</text><text fill="#000000" font-family="sans-serif" font-size="11" lengthAdjust="spacingAndGlyphs" textLength="10" x="948.7969" y="153.6519">ja</text><polygon fill="#FEFECE" filter="url(#frl13igro5w01)" points="556.0938,185.4531,691.0938,185.4531,703.0938,211.0625,691.0938,236.6719,556.0938,236.6719,544.0938,211.0625,556.0938,185.4531" style="stroke: #A80036; stroke-width: 1.5;"/><text fill="#000000" font-family="sans-serif" font-size="11" lengthAdjust="spacingAndGlyphs" textLength="0" x="560.0938" y="195.6636"/><text fill="#000000" font-family="sans-serif" font-size="11" lengthAdjust="spacingAndGlyphs" textLength="135" x="556.0938" y="208.4683">Als externe Datenquelle</text><text fill="#000000" font-family="sans-serif" font-size="11" lengthAdjust="spacingAndGlyphs" textLength="59" x="556.0938" y="221.2729">gefunden?</text><text fill="#000000" font-family="sans-serif" font-size="11" lengthAdjust="spacingAndGlyphs" textLength="0" x="560.0938" y="234.0776"/><text fill="#000000" font-family="sans-serif" font-size="11" lengthAdjust="spacingAndGlyphs" textLength="123" x="421.0938" y="208.4683">nein, selber erfassen</text><text fill="#000000" font-family="sans-serif" font-size="11" lengthAdjust="spacingAndGlyphs" textLength="10" x="703.0938" y="208.4683">ja</text><polygon fill="#FEFECE" filter="url(#frl13igro5w01)" points="375.6875,246.6719,490.6875,246.6719,502.6875,265.8789,490.6875,285.0859,375.6875,285.0859,363.6875,265.8789,375.6875,246.6719" style="stroke: #A80036; stroke-width: 1.5;"/><text fill="#000000" font-family="sans-serif" font-size="11" lengthAdjust="spacingAndGlyphs" textLength="0" x="379.6875" y="256.8823"/><text fill="#000000" font-family="sans-serif" font-size="11" lengthAdjust="spacingAndGlyphs" textLength="115" x="375.6875" y="269.687">Kann etwas warten?</text><text fill="#000000" font-family="sans-serif" font-size="11" lengthAdjust="spacingAndGlyphs" textLength="0" x="379.6875" y="282.4917"/><text fill="#000000" font-family="sans-serif" font-size="11" lengthAdjust="spacingAndGlyphs" textLength="24" x="339.6875" y="263.2847">nein</text><text fill="#000000" font-family="sans-serif" font-size="11" lengthAdjust="spacingAndGlyphs" textLength="10" x="502.6875" y="263.2847">ja</text><polygon fill="#FEFECE" filter="url(#frl13igro5w01)" points="235.375,295.0859,315.375,295.0859,327.375,314.293,315.375,333.5,235.375,333.5,223.375,314.293,235.375,295.0859" style="stroke: #A80036; stroke-width: 1.5;"/><text fill="#000000" font-family="sans-serif" font-size="11" lengthAdjust="spacingAndGlyphs" textLength="0" x="239.375" y="305.2964"/><text fill="#000000" font-family="sans-serif" font-size="11" lengthAdjust="spacingAndGlyphs" textLength="80" x="235.375" y="318.1011">Viele Objekte?</text><text fill="#000000" font-family="sans-serif" font-size="11" lengthAdjust="spacingAndGlyphs" textLength="0" x="239.375" y="330.9058"/><text fill="#000000" font-family="sans-serif" font-size="11" lengthAdjust="spacingAndGlyphs" textLength="24" x="199.375" y="311.6987">nein</text><text fill="#000000" font-family="sans-serif" font-size="11" lengthAdjust="spacingAndGlyphs" textLength="10" x="327.375" y="311.6987">ja</text><polygon fill="#FEFECE" filter="url(#frl13igro5w01)" points="103.75,343.5,198.75,343.5,210.75,369.1094,198.75,394.7188,103.75,394.7188,91.75,369.1094,103.75,343.5" style="stroke: #A80036; stroke-width: 1.5;"/><text fill="#000000" font-family="sans-serif" font-size="11" lengthAdjust="spacingAndGlyphs" textLength="0" x="107.75" y="353.7104"/><text fill="#000000" font-family="sans-serif" font-size="11" lengthAdjust="spacingAndGlyphs" textLength="95" x="103.75" y="366.5151">Nur Geometrien,</text><text fill="#000000" font-family="sans-serif" font-size="11" lengthAdjust="spacingAndGlyphs" textLength="88" x="103.75" y="379.3198">keine Attribute?</text><text fill="#000000" font-family="sans-serif" font-size="11" lengthAdjust="spacingAndGlyphs" textLength="0" x="107.75" y="392.1245"/><text fill="#000000" font-family="sans-serif" font-size="11" lengthAdjust="spacingAndGlyphs" textLength="24" x="67.75" y="366.5151">nein</text><text fill="#000000" font-family="sans-serif" font-size="11" lengthAdjust="spacingAndGlyphs" textLength="10" x="210.75" y="366.5151">ja</text><rect fill="#FEFECE" filter="url(#frl13igro5w01)" height="61.9063" rx="12.5" ry="12.5" style="stroke: #A80036; stroke-width: 1.5;" width="128" x="10" y="404.7188"/><text fill="#000000" font-family="sans-serif" font-size="12" lengthAdjust="spacingAndGlyphs" textLength="76" x="20" y="425.8574">(Kapitel 2.1)</text><text fill="#000000" font-family="sans-serif" font-size="12" lengthAdjust="spacingAndGlyphs" textLength="91" x="20" y="439.8262">Daten manuell</text><text fill="#000000" font-family="sans-serif" font-size="12" lengthAdjust="spacingAndGlyphs" textLength="108" x="20" y="453.7949">in uMap erfassen</text><rect fill="#FEFECE" filter="url(#frl13igro5w01)" height="47.9375" rx="12.5" ry="12.5" style="stroke: #A80036; stroke-width: 1.5;" width="141" x="158" y="404.7188"/><text fill="#000000" font-family="sans-serif" font-size="12" lengthAdjust="spacingAndGlyphs" textLength="76" x="168" y="425.8574">(Kapitel 2.2)</text><text fill="#000000" font-family="sans-serif" font-size="12" lengthAdjust="spacingAndGlyphs" textLength="121" x="168" y="439.8262">Geodaten erfassen</text><polygon fill="#FEFECE" filter="url(#frl13igro5w01)" points="151.25,472.625,163.25,484.625,151.25,496.625,139.25,484.625,151.25,472.625" style="stroke: #A80036; stroke-width: 1.5;"/><rect fill="#FEFECE" filter="url(#frl13igro5w01)" height="47.9375" rx="12.5" ry="12.5" style="stroke: #A80036; stroke-width: 1.5;" width="141" x="329" y="343.5"/><text fill="#000000" font-family="sans-serif" font-size="12" lengthAdjust="spacingAndGlyphs" textLength="76" x="339" y="364.6387">(Kapitel 2.2)</text><text fill="#000000" font-family="sans-serif" font-size="12" lengthAdjust="spacingAndGlyphs" textLength="121" x="339" y="378.6074">Geodaten erfassen</text><polygon fill="#FEFECE" filter="url(#frl13igro5w01)" points="275.375,502.625,287.375,514.625,275.375,526.625,263.375,514.625,275.375,502.625" style="stroke: #A80036; stroke-width: 1.5;"/><rect fill="#FEFECE" filter="url(#frl13igro5w01)" height="61.9063" rx="12.5" ry="12.5" style="stroke: #A80036; stroke-width: 1.5;" width="182" x="500" y="295.0859"/><text fill="#000000" font-family="sans-serif" font-size="12" lengthAdjust="spacingAndGlyphs" textLength="76" x="510" y="316.2246">(Kapitel 2.3)</text><text fill="#000000" font-family="sans-serif" font-size="12" lengthAdjust="spacingAndGlyphs" textLength="53" x="510" y="330.1934">Daten in</text><text fill="#000000" font-family="sans-serif" font-size="12" lengthAdjust="spacingAndGlyphs" textLength="162" x="510" y="344.1621">OpenStreetMap erfassen"</text><polygon fill="#FEFECE" filter="url(#frl13igro5w01)" points="433.1875,532.625,445.1875,544.625,433.1875,556.625,421.1875,544.625,433.1875,532.625" style="stroke: #A80036; stroke-width: 1.5;"/><rect fill="#FEFECE" filter="url(#frl13igro5w01)" height="61.9063" rx="12.5" ry="12.5" style="stroke: #A80036; stroke-width: 1.5;" width="204" x="712" y="246.6719"/><text fill="#000000" font-family="sans-serif" font-size="12" lengthAdjust="spacingAndGlyphs" textLength="64" x="722" y="267.8105">(Kapitel 3)</text><text fill="#000000" font-family="sans-serif" font-size="12" lengthAdjust="spacingAndGlyphs" textLength="112" x="722" y="281.7793">Daten als externe</text><text fill="#000000" font-family="sans-serif" font-size="12" lengthAdjust="spacingAndGlyphs" textLength="184" x="722" y="295.748">Datenquelle/Datei vorhanden</text><polygon fill="#FEFECE" filter="url(#frl13igro5w01)" points="623.5938,562.625,635.5938,574.625,623.5938,586.625,611.5938,574.625,623.5938,562.625" style="stroke: #A80036; stroke-width: 1.5;"/><polygon fill="#FEFECE" filter="url(#frl13igro5w01)" points="1049,185.4531,1157,185.4531,1169,211.0625,1157,236.6719,1049,236.6719,1037,211.0625,1049,185.4531" style="stroke: #A80036; stroke-width: 1.5;"/><text fill="#000000" font-family="sans-serif" font-size="11" lengthAdjust="spacingAndGlyphs" textLength="0" x="1053" y="195.6636"/><text fill="#000000" font-family="sans-serif" font-size="11" lengthAdjust="spacingAndGlyphs" textLength="104" x="1049" y="208.4683">OSM-Daten immer</text><text fill="#000000" font-family="sans-serif" font-size="11" lengthAdjust="spacingAndGlyphs" textLength="78" x="1049" y="221.2729">aktuell laden?</text><text fill="#000000" font-family="sans-serif" font-size="11" lengthAdjust="spacingAndGlyphs" textLength="0" x="1053" y="234.0776"/><text fill="#000000" font-family="sans-serif" font-size="11" lengthAdjust="spacingAndGlyphs" textLength="91" x="946" y="208.4683">nein/"snapshot"</text><text fill="#000000" font-family="sans-serif" font-size="11" lengthAdjust="spacingAndGlyphs" textLength="10" x="1169" y="208.4683">ja</text><rect fill="#FEFECE" filter="url(#frl13igro5w01)" height="61.9063" rx="12.5" ry="12.5" style="stroke: #A80036; stroke-width: 1.5;" width="123" x="957" y="246.6719"/><text fill="#000000" font-family="sans-serif" font-size="12" lengthAdjust="spacingAndGlyphs" textLength="76" x="967" y="267.8105">(Kapitel 4.1)</text><text fill="#000000" font-family="sans-serif" font-size="12" lengthAdjust="spacingAndGlyphs" textLength="99" x="967" y="281.7793">Einen Snapshot</text><text fill="#000000" font-family="sans-serif" font-size="12" lengthAdjust="spacingAndGlyphs" textLength="94" x="967" y="295.748">der OSM-Daten</text><rect fill="#FEFECE" filter="url(#frl13igro5w01)" height="61.9063" rx="12.5" ry="12.5" style="stroke: #A80036; stroke-width: 1.5;" width="175" x="1100" y="246.6719"/><text fill="#000000" font-family="sans-serif" font-size="12" lengthAdjust="spacingAndGlyphs" textLength="76" x="1110" y="267.8105">(Kapitel 4.2)</text><text fill="#000000" font-family="sans-serif" font-size="12" lengthAdjust="spacingAndGlyphs" textLength="135" x="1110" y="281.7793">Daten immer auf dem</text><text fill="#000000" font-family="sans-serif" font-size="12" lengthAdjust="spacingAndGlyphs" textLength="155" x="1110" y="295.748">aktuellsten Stand halten</text><polygon fill="#FEFECE" filter="url(#frl13igro5w01)" points="1103,314.5781,1115,326.5781,1103,338.5781,1091,326.5781,1103,314.5781" style="stroke: #A80036; stroke-width: 1.5;"/><polygon fill="#FEFECE" filter="url(#frl13igro5w01)" points="863.2969,592.625,875.2969,604.625,863.2969,616.625,851.2969,604.625,863.2969,592.625" style="stroke: #A80036; stroke-width: 1.5;"/><path d="M456.2969,626.625 L456.2969,666.8906 A0,0 0 0 0 456.2969,666.8906 L833.2969,666.8906 A0,0 0 0 0 833.2969,666.8906 L833.2969,650.7578 L853.2969,646.7578 L833.2969,642.7578 L833.2969,636.625 L823.2969,626.625 L456.2969,626.625 A0,0 0 0 0 456.2969,626.625 " fill="#FBFB77" filter="url(#frl13igro5w01)" style="stroke: #A80036; stroke-width: 1.0;"/><path d="M823.2969,626.625 L823.2969,636.625 L833.2969,636.625 L823.2969,626.625 " fill="#FBFB77" style="stroke: #A80036; stroke-width: 1.0;"/><text fill="#000000" font-family="sans-serif" font-size="13" lengthAdjust="spacingAndGlyphs" textLength="347" x="462.2969" y="643.6919">In uMap importieren (bzw. als Remote Data einbinden)</text><text fill="#000000" font-family="sans-serif" font-size="13" lengthAdjust="spacingAndGlyphs" textLength="356" x="462.2969" y="658.8247">Weiter gemäss Anleitung "Geodaten in uMap einbinden"</text><ellipse cx="863.2969" cy="646.7578" fill="none" filter="url(#frl13igro5w01)" rx="10" ry="10" style="stroke: #000000; stroke-width: 1.0;"/><ellipse cx="863.7969" cy="647.2578" fill="#000000" filter="url(#frl13igro5w01)" rx="6" ry="6" style="stroke: none; stroke-width: 1.0;"/><line style="stroke: #A80036; stroke-width: 1.5;" x1="863.2969" x2="863.2969" y1="32.5664" y2="55.1328"/><polygon fill="#A80036" points="859.2969,45.1328,863.2969,55.1328,867.2969,45.1328,863.2969,49.1328" style="stroke: #A80036; stroke-width: 1.0;"/><line style="stroke: #A80036; stroke-width: 1.5;" x1="91.75" x2="74" y1="369.1094" y2="369.1094"/><line style="stroke: #A80036; stroke-width: 1.5;" x1="74" x2="74" y1="369.1094" y2="404.7188"/><polygon fill="#A80036" points="70,394.7188,74,404.7188,78,394.7188,74,398.7188" style="stroke: #A80036; stroke-width: 1.0;"/><line style="stroke: #A80036; stroke-width: 1.5;" x1="210.75" x2="228.5" y1="369.1094" y2="369.1094"/><line style="stroke: #A80036; stroke-width: 1.5;" x1="228.5" x2="228.5" y1="369.1094" y2="404.7188"/><polygon fill="#A80036" points="224.5,394.7188,228.5,404.7188,232.5,394.7188,228.5,398.7188" style="stroke: #A80036; stroke-width: 1.0;"/><line style="stroke: #A80036; stroke-width: 1.5;" x1="74" x2="74" y1="466.625" y2="484.625"/><line style="stroke: #A80036; stroke-width: 1.5;" x1="74" x2="139.25" y1="484.625" y2="484.625"/><polygon fill="#A80036" points="129.25,480.625,139.25,484.625,129.25,488.625,133.25,484.625" style="stroke: #A80036; stroke-width: 1.0;"/><line style="stroke: #A80036; stroke-width: 1.5;" x1="228.5" x2="228.5" y1="452.6563" y2="484.625"/><line style="stroke: #A80036; stroke-width: 1.5;" x1="228.5" x2="163.25" y1="484.625" y2="484.625"/><polygon fill="#A80036" points="173.25,480.625,163.25,484.625,173.25,488.625,169.25,484.625" style="stroke: #A80036; stroke-width: 1.0;"/><line style="stroke: #A80036; stroke-width: 1.5;" x1="223.375" x2="151.25" y1="314.293" y2="314.293"/><line style="stroke: #A80036; stroke-width: 1.5;" x1="151.25" x2="151.25" y1="314.293" y2="343.5"/><polygon fill="#A80036" points="147.25,333.5,151.25,343.5,155.25,333.5,151.25,337.5" style="stroke: #A80036; stroke-width: 1.0;"/><line style="stroke: #A80036; stroke-width: 1.5;" x1="327.375" x2="399.5" y1="314.293" y2="314.293"/><line style="stroke: #A80036; stroke-width: 1.5;" x1="399.5" x2="399.5" y1="314.293" y2="343.5"/><polygon fill="#A80036" points="395.5,333.5,399.5,343.5,403.5,333.5,399.5,337.5" style="stroke: #A80036; stroke-width: 1.0;"/><line style="stroke: #A80036; stroke-width: 1.5;" x1="151.25" x2="151.25" y1="496.625" y2="514.625"/><line style="stroke: #A80036; stroke-width: 1.5;" x1="151.25" x2="263.375" y1="514.625" y2="514.625"/><polygon fill="#A80036" points="253.375,510.625,263.375,514.625,253.375,518.625,257.375,514.625" style="stroke: #A80036; stroke-width: 1.0;"/><line style="stroke: #A80036; stroke-width: 1.5;" x1="399.5" x2="399.5" y1="391.4375" y2="514.625"/><line style="stroke: #A80036; stroke-width: 1.5;" x1="399.5" x2="287.375" y1="514.625" y2="514.625"/><polygon fill="#A80036" points="297.375,510.625,287.375,514.625,297.375,518.625,293.375,514.625" style="stroke: #A80036; stroke-width: 1.0;"/><line style="stroke: #A80036; stroke-width: 1.5;" x1="363.6875" x2="275.375" y1="265.8789" y2="265.8789"/><line style="stroke: #A80036; stroke-width: 1.5;" x1="275.375" x2="275.375" y1="265.8789" y2="295.0859"/><polygon fill="#A80036" points="271.375,285.0859,275.375,295.0859,279.375,285.0859,275.375,289.0859" style="stroke: #A80036; stroke-width: 1.0;"/><line style="stroke: #A80036; stroke-width: 1.5;" x1="502.6875" x2="591" y1="265.8789" y2="265.8789"/><line style="stroke: #A80036; stroke-width: 1.5;" x1="591" x2="591" y1="265.8789" y2="295.0859"/><polygon fill="#A80036" points="587,285.0859,591,295.0859,595,285.0859,591,289.0859" style="stroke: #A80036; stroke-width: 1.0;"/><line style="stroke: #A80036; stroke-width: 1.5;" x1="275.375" x2="275.375" y1="526.625" y2="544.625"/><line style="stroke: #A80036; stroke-width: 1.5;" x1="275.375" x2="421.1875" y1="544.625" y2="544.625"/><polygon fill="#A80036" points="411.1875,540.625,421.1875,544.625,411.1875,548.625,415.1875,544.625" style="stroke: #A80036; stroke-width: 1.0;"/><line style="stroke: #A80036; stroke-width: 1.5;" x1="591" x2="591" y1="356.9922" y2="544.625"/><line style="stroke: #A80036; stroke-width: 1.5;" x1="591" x2="445.1875" y1="544.625" y2="544.625"/><polygon fill="#A80036" points="455.1875,540.625,445.1875,544.625,455.1875,548.625,451.1875,544.625" style="stroke: #A80036; stroke-width: 1.0;"/><line style="stroke: #A80036; stroke-width: 1.5;" x1="544.0938" x2="433.1875" y1="211.0625" y2="211.0625"/><line style="stroke: #A80036; stroke-width: 1.5;" x1="433.1875" x2="433.1875" y1="211.0625" y2="246.6719"/><polygon fill="#A80036" points="429.1875,236.6719,433.1875,246.6719,437.1875,236.6719,433.1875,240.6719" style="stroke: #A80036; stroke-width: 1.0;"/><line style="stroke: #A80036; stroke-width: 1.5;" x1="703.0938" x2="814" y1="211.0625" y2="211.0625"/><line style="stroke: #A80036; stroke-width: 1.5;" x1="814" x2="814" y1="211.0625" y2="246.6719"/><polygon fill="#A80036" points="810,236.6719,814,246.6719,818,236.6719,814,240.6719" style="stroke: #A80036; stroke-width: 1.0;"/><line style="stroke: #A80036; stroke-width: 1.5;" x1="433.1875" x2="433.1875" y1="556.625" y2="574.625"/><line style="stroke: #A80036; stroke-width: 1.5;" x1="433.1875" x2="611.5938" y1="574.625" y2="574.625"/><polygon fill="#A80036" points="601.5938,570.625,611.5938,574.625,601.5938,578.625,605.5938,574.625" style="stroke: #A80036; stroke-width: 1.0;"/><line style="stroke: #A80036; stroke-width: 1.5;" x1="814" x2="814" y1="308.5781" y2="574.625"/><line style="stroke: #A80036; stroke-width: 1.5;" x1="814" x2="635.5938" y1="574.625" y2="574.625"/><polygon fill="#A80036" points="645.5938,570.625,635.5938,574.625,645.5938,578.625,641.5938,574.625" style="stroke: #A80036; stroke-width: 1.0;"/><line style="stroke: #A80036; stroke-width: 1.5;" x1="1037" x2="1018.5" y1="211.0625" y2="211.0625"/><line style="stroke: #A80036; stroke-width: 1.5;" x1="1018.5" x2="1018.5" y1="211.0625" y2="246.6719"/><polygon fill="#A80036" points="1014.5,236.6719,1018.5,246.6719,1022.5,236.6719,1018.5,240.6719" style="stroke: #A80036; stroke-width: 1.0;"/><line style="stroke: #A80036; stroke-width: 1.5;" x1="1169" x2="1187.5" y1="211.0625" y2="211.0625"/><line style="stroke: #A80036; stroke-width: 1.5;" x1="1187.5" x2="1187.5" y1="211.0625" y2="246.6719"/><polygon fill="#A80036" points="1183.5,236.6719,1187.5,246.6719,1191.5,236.6719,1187.5,240.6719" style="stroke: #A80036; stroke-width: 1.0;"/><line style="stroke: #A80036; stroke-width: 1.5;" x1="1018.5" x2="1018.5" y1="308.5781" y2="326.5781"/><line style="stroke: #A80036; stroke-width: 1.5;" x1="1018.5" x2="1091" y1="326.5781" y2="326.5781"/><polygon fill="#A80036" points="1081,322.5781,1091,326.5781,1081,330.5781,1085,326.5781" style="stroke: #A80036; stroke-width: 1.0;"/><line style="stroke: #A80036; stroke-width: 1.5;" x1="1187.5" x2="1187.5" y1="308.5781" y2="326.5781"/><line style="stroke: #A80036; stroke-width: 1.5;" x1="1187.5" x2="1115" y1="326.5781" y2="326.5781"/><polygon fill="#A80036" points="1125,322.5781,1115,326.5781,1125,330.5781,1121,326.5781" style="stroke: #A80036; stroke-width: 1.0;"/><line style="stroke: #A80036; stroke-width: 1.5;" x1="777.7969" x2="623.5938" y1="156.2461" y2="156.2461"/><line style="stroke: #A80036; stroke-width: 1.5;" x1="623.5938" x2="623.5938" y1="156.2461" y2="185.4531"/><polygon fill="#A80036" points="619.5938,175.4531,623.5938,185.4531,627.5938,175.4531,623.5938,179.4531" style="stroke: #A80036; stroke-width: 1.0;"/><line style="stroke: #A80036; stroke-width: 1.5;" x1="948.7969" x2="1103" y1="156.2461" y2="156.2461"/><line style="stroke: #A80036; stroke-width: 1.5;" x1="1103" x2="1103" y1="156.2461" y2="185.4531"/><polygon fill="#A80036" points="1099,175.4531,1103,185.4531,1107,175.4531,1103,179.4531" style="stroke: #A80036; stroke-width: 1.0;"/><line style="stroke: #A80036; stroke-width: 1.5;" x1="623.5938" x2="623.5938" y1="586.625" y2="604.625"/><line style="stroke: #A80036; stroke-width: 1.5;" x1="623.5938" x2="851.2969" y1="604.625" y2="604.625"/><polygon fill="#A80036" points="841.2969,600.625,851.2969,604.625,841.2969,608.625,845.2969,604.625" style="stroke: #A80036; stroke-width: 1.0;"/><line style="stroke: #A80036; stroke-width: 1.5;" x1="1103" x2="1103" y1="338.5781" y2="604.625"/><line style="stroke: #A80036; stroke-width: 1.5;" x1="1103" x2="875.2969" y1="604.625" y2="604.625"/><polygon fill="#A80036" points="885.2969,600.625,875.2969,604.625,885.2969,608.625,881.2969,604.625" style="stroke: #A80036; stroke-width: 1.0;"/><line style="stroke: #A80036; stroke-width: 1.5;" x1="863.2969" x2="863.2969" y1="117.0391" y2="137.0391"/><polygon fill="#A80036" points="859.2969,127.0391,863.2969,137.0391,867.2969,127.0391,863.2969,131.0391" style="stroke: #A80036; stroke-width: 1.0;"/><line style="stroke: #A80036; stroke-width: 1.5;" x1="863.2969" x2="863.2969" y1="616.625" y2="636.7578"/><polygon fill="#A80036" points="859.2969,626.7578,863.2969,636.7578,867.2969,626.7578,863.2969,630.7578" style="stroke: #A80036; stroke-width: 1.0;"/><!--
@startuml
start
note left
  "Geodaten in uMap einbinden" Start
end note

:(Kapitel 1)\nGeodaten \nin uMap einbinden;

if (\nDaten in OSM vorhanden?\n) then (nein)
  if (\nAls externe Datenquelle\ngefunden?\n) then (nein, selber erfassen)
    if (\nKann etwas warten?\n) then (nein)
      if (\nViele Objekte?\n) then (nein)
        if (\nNur Geometrien,\nkeine Attribute?\n) then (nein)
          :(Kapitel 2.1)\nDaten manuell \nin uMap erfassen;
        else (ja)
          :(Kapitel 2.2)\nGeodaten erfassen;
        endif
      else (ja)
        :(Kapitel 2.2)\nGeodaten erfassen;
      endif
    else (ja)
      :(Kapitel 2.3)\nDaten in \nOpenStreetMap erfassen";
    endif
  else (ja)
    :(Kapitel 3)\nDaten als externe \nDatenquelle/Datei vorhanden;
  endif
else (ja)
  if (\nOSM-Daten immer \naktuell laden?\n) then (nein/"snapshot")
    :(Kapitel 4.1)\nEinen Snapshot \nder OSM-Daten;
  else (ja)
    :(Kapitel 4.2)\nDaten immer auf dem \naktuellsten Stand halten;
  endif
endif

stop
note left
  In uMap importieren (bzw. als Remote Data einbinden)
  Weiter gemäss Anleitung "Geodaten in uMap einbinden"
end note
@enduml

PlantUML version 1.2018.11(Sat Sep 22 16:43:53 UTC 2018)
(GPL source distribution)
Java Runtime: Java(TM) SE Runtime Environment
JVM: Java HotSpot(TM) 64-Bit Server VM
Java Version: 1.7.0_25-b15
Operating System: Linux
Default Encoding: UTF-8
Language: en
Country: US
--></g></svg>