<?xml version="1.0" encoding="UTF-8" standalone="no"?>
<svg xmlns="http://www.w3.org/2000/svg" xmlns:xlink="http://www.w3.org/1999/xlink" contentScriptType="application/ecmascript" contentStyleType="text/css" height="692px" preserveAspectRatio="none" style="width:1384px;height:692px;" version="1.1" viewBox="0 0 1384 692" width="1384px" zoomAndPan="magnify"><defs><filter height="300%" id="f1789mnm45itoj" width="300%" x="-1" y="-1"><feGaussianBlur result="blurOut" stdDeviation="2.0"/><feColorMatrix in="blurOut" result="blurOut2" type="matrix" values="0 0 0 0 0 0 0 0 0 0 0 0 0 0 0 0 0 0 .4 0"/><feOffset dx="4.0" dy="4.0" in="blurOut2" result="blurOut3"/><feBlend in="SourceGraphic" in2="blurOut3" mode="normal"/></filter></defs><g><path d="M623.3906,10 L623.3906,35.1328 A0,0 0 0 0 623.3906,35.1328 L873.3906,35.1328 A0,0 0 0 0 873.3906,35.1328 L873.3906,28 L893.3906,22.5664 L873.3906,20 L873.3906,20 L863.3906,10 L623.3906,10 A0,0 0 0 0 623.3906,10 " fill="#FBFB77" filter="url(#f1789mnm45itoj)" style="stroke: #A80036; stroke-width: 1.0;"/><path d="M863.3906,10 L863.3906,20 L873.3906,20 L863.3906,10 " fill="#FBFB77" style="stroke: #A80036; stroke-width: 1.0;"/><text fill="#000000" font-family="sans-serif" font-size="13" lengthAdjust="spacingAndGlyphs" textLength="229" x="629.3906" y="27.0669">"Geodaten in uMap einbinden" Start</text><ellipse cx="903.3906" cy="22.5664" fill="#000000" filter="url(#f1789mnm45itoj)" rx="10" ry="10" style="stroke: none; stroke-width: 1.0;"/><rect fill="#FEFECE" filter="url(#f1789mnm45itoj)" height="61.9063" rx="12.5" ry="12.5" style="stroke: #A80036; stroke-width: 1.5;" width="209" x="798.8906" y="55.1328"/><text fill="#000000" font-family="sans-serif" font-size="12" lengthAdjust="spacingAndGlyphs" textLength="58" x="808.8906" y="76.2715">Kapitel 1:</text><text fill="#000000" font-family="sans-serif" font-size="12" lengthAdjust="spacingAndGlyphs" textLength="181" x="808.8906" y="90.2402">Geodaten in uMap einbinden</text><text fill="#000000" font-family="sans-serif" font-size="12" lengthAdjust="spacingAndGlyphs" textLength="189" x="808.8906" y="104.209">(z.B. mit taginfo/wiki/tagfinder)</text><polygon fill="#FEFECE" filter="url(#f1789mnm45itoj)" points="848.3906,137.0391,958.3906,137.0391,970.3906,156.2461,958.3906,175.4531,848.3906,175.4531,836.3906,156.2461,848.3906,137.0391" style="stroke: #A80036; stroke-width: 1.5;"/><text fill="#000000" font-family="sans-serif" font-size="11" lengthAdjust="spacingAndGlyphs" textLength="0" x="852.3906" y="147.2495"/><text fill="#000000" font-family="sans-serif" font-size="11" lengthAdjust="spacingAndGlyphs" textLength="110" x="848.3906" y="160.0542">In OSM vorhanden?</text><text fill="#000000" font-family="sans-serif" font-size="11" lengthAdjust="spacingAndGlyphs" textLength="0" x="852.3906" y="172.8589"/><text fill="#000000" font-family="sans-serif" font-size="11" lengthAdjust="spacingAndGlyphs" textLength="24" x="812.3906" y="153.6519">nein</text><text fill="#000000" font-family="sans-serif" font-size="11" lengthAdjust="spacingAndGlyphs" textLength="10" x="970.3906" y="153.6519">ja</text><polygon fill="#FEFECE" filter="url(#f1789mnm45itoj)" points="561.7813,185.4531,696.7813,185.4531,708.7813,211.0625,696.7813,236.6719,561.7813,236.6719,549.7813,211.0625,561.7813,185.4531" style="stroke: #A80036; stroke-width: 1.5;"/><text fill="#000000" font-family="sans-serif" font-size="11" lengthAdjust="spacingAndGlyphs" textLength="0" x="565.7813" y="195.6636"/><text fill="#000000" font-family="sans-serif" font-size="11" lengthAdjust="spacingAndGlyphs" textLength="135" x="561.7813" y="208.4683">Als externe Datenquelle</text><text fill="#000000" font-family="sans-serif" font-size="11" lengthAdjust="spacingAndGlyphs" textLength="59" x="561.7813" y="221.2729">gefunden?</text><text fill="#000000" font-family="sans-serif" font-size="11" lengthAdjust="spacingAndGlyphs" textLength="0" x="565.7813" y="234.0776"/><text fill="#000000" font-family="sans-serif" font-size="11" lengthAdjust="spacingAndGlyphs" textLength="123" x="426.7813" y="208.4683">nein, selber erfassen</text><text fill="#000000" font-family="sans-serif" font-size="11" lengthAdjust="spacingAndGlyphs" textLength="10" x="708.7813" y="208.4683">ja</text><polygon fill="#FEFECE" filter="url(#f1789mnm45itoj)" points="382.0625,246.6719,497.0625,246.6719,509.0625,265.8789,497.0625,285.0859,382.0625,285.0859,370.0625,265.8789,382.0625,246.6719" style="stroke: #A80036; stroke-width: 1.5;"/><text fill="#000000" font-family="sans-serif" font-size="11" lengthAdjust="spacingAndGlyphs" textLength="0" x="386.0625" y="256.8823"/><text fill="#000000" font-family="sans-serif" font-size="11" lengthAdjust="spacingAndGlyphs" textLength="115" x="382.0625" y="269.687">Kann etwas warten?</text><text fill="#000000" font-family="sans-serif" font-size="11" lengthAdjust="spacingAndGlyphs" textLength="0" x="386.0625" y="282.4917"/><text fill="#000000" font-family="sans-serif" font-size="11" lengthAdjust="spacingAndGlyphs" textLength="24" x="346.0625" y="263.2847">nein</text><text fill="#000000" font-family="sans-serif" font-size="11" lengthAdjust="spacingAndGlyphs" textLength="10" x="509.0625" y="263.2847">ja</text><polygon fill="#FEFECE" filter="url(#f1789mnm45itoj)" points="240.625,295.0859,320.625,295.0859,332.625,314.293,320.625,333.5,240.625,333.5,228.625,314.293,240.625,295.0859" style="stroke: #A80036; stroke-width: 1.5;"/><text fill="#000000" font-family="sans-serif" font-size="11" lengthAdjust="spacingAndGlyphs" textLength="0" x="244.625" y="305.2964"/><text fill="#000000" font-family="sans-serif" font-size="11" lengthAdjust="spacingAndGlyphs" textLength="80" x="240.625" y="318.1011">Viele Objekte?</text><text fill="#000000" font-family="sans-serif" font-size="11" lengthAdjust="spacingAndGlyphs" textLength="0" x="244.625" y="330.9058"/><text fill="#000000" font-family="sans-serif" font-size="11" lengthAdjust="spacingAndGlyphs" textLength="24" x="204.625" y="311.6987">nein</text><text fill="#000000" font-family="sans-serif" font-size="11" lengthAdjust="spacingAndGlyphs" textLength="10" x="332.625" y="311.6987">ja</text><polygon fill="#FEFECE" filter="url(#f1789mnm45itoj)" points="105.75,343.5,201.75,343.5,213.75,369.1094,201.75,394.7188,105.75,394.7188,93.75,369.1094,105.75,343.5" style="stroke: #A80036; stroke-width: 1.5;"/><text fill="#000000" font-family="sans-serif" font-size="11" lengthAdjust="spacingAndGlyphs" textLength="0" x="109.75" y="353.7104"/><text fill="#000000" font-family="sans-serif" font-size="11" lengthAdjust="spacingAndGlyphs" textLength="92" x="105.75" y="366.5151">Attribute flexibel</text><text fill="#000000" font-family="sans-serif" font-size="11" lengthAdjust="spacingAndGlyphs" textLength="67" x="105.75" y="379.3198">bearbeiten?</text><text fill="#000000" font-family="sans-serif" font-size="11" lengthAdjust="spacingAndGlyphs" textLength="0" x="109.75" y="392.1245"/><text fill="#000000" font-family="sans-serif" font-size="11" lengthAdjust="spacingAndGlyphs" textLength="24" x="69.75" y="366.5151">nein</text><text fill="#000000" font-family="sans-serif" font-size="11" lengthAdjust="spacingAndGlyphs" textLength="10" x="213.75" y="366.5151">ja</text><rect fill="#FEFECE" filter="url(#f1789mnm45itoj)" height="61.9063" rx="12.5" ry="12.5" style="stroke: #A80036; stroke-width: 1.5;" width="130" x="10" y="404.7188"/><text fill="#000000" font-family="sans-serif" font-size="12" lengthAdjust="spacingAndGlyphs" textLength="70" x="20" y="425.8574">Kapitel 2.1:</text><text fill="#000000" font-family="sans-serif" font-size="12" lengthAdjust="spacingAndGlyphs" textLength="106" x="20" y="439.8262">Daten manuell in</text><text fill="#000000" font-family="sans-serif" font-size="12" lengthAdjust="spacingAndGlyphs" textLength="93" x="20" y="453.7949">uMap erfassen</text><rect fill="#FEFECE" filter="url(#f1789mnm45itoj)" height="75.875" rx="12.5" ry="12.5" style="stroke: #A80036; stroke-width: 1.5;" width="145" x="160" y="404.7188"/><text fill="#000000" font-family="sans-serif" font-size="12" lengthAdjust="spacingAndGlyphs" textLength="70" x="170" y="425.8574">Kapitel 2.2:</text><text fill="#000000" font-family="sans-serif" font-size="12" lengthAdjust="spacingAndGlyphs" textLength="121" x="170" y="439.8262">Geodaten erfassen</text><text fill="#000000" font-family="sans-serif" font-size="12" lengthAdjust="spacingAndGlyphs" textLength="65" x="170" y="453.7949">geojson.io</text><text fill="#000000" font-family="sans-serif" font-size="12" lengthAdjust="spacingAndGlyphs" textLength="112" x="170" y="467.7637">&gt; Export GeoJSON</text><polygon fill="#FEFECE" filter="url(#f1789mnm45itoj)" points="153.75,486.5938,165.75,498.5938,153.75,510.5938,141.75,498.5938,153.75,486.5938" style="stroke: #A80036; stroke-width: 1.5;"/><rect fill="#FEFECE" filter="url(#f1789mnm45itoj)" height="75.875" rx="12.5" ry="12.5" style="stroke: #A80036; stroke-width: 1.5;" width="145" x="335" y="343.5"/><text fill="#000000" font-family="sans-serif" font-size="12" lengthAdjust="spacingAndGlyphs" textLength="70" x="345" y="364.6387">Kapitel 2.2:</text><text fill="#000000" font-family="sans-serif" font-size="12" lengthAdjust="spacingAndGlyphs" textLength="121" x="345" y="378.6074">Geodaten erfassen</text><text fill="#000000" font-family="sans-serif" font-size="12" lengthAdjust="spacingAndGlyphs" textLength="115" x="345" y="392.5762">"QGIS Einf체hrung",</text><text fill="#000000" font-family="sans-serif" font-size="12" lengthAdjust="spacingAndGlyphs" textLength="112" x="345" y="406.5449">&gt; Export GeoJSON</text><polygon fill="#FEFECE" filter="url(#f1789mnm45itoj)" points="280.625,516.5938,292.625,528.5938,280.625,540.5938,268.625,528.5938,280.625,516.5938" style="stroke: #A80036; stroke-width: 1.5;"/><rect fill="#FEFECE" filter="url(#f1789mnm45itoj)" height="103.8125" rx="12.5" ry="12.5" style="stroke: #A80036; stroke-width: 1.5;" width="177" x="510" y="295.0859"/><text fill="#000000" font-family="sans-serif" font-size="12" lengthAdjust="spacingAndGlyphs" textLength="70" x="520" y="316.2246">Kapitel 2.3:</text><text fill="#000000" font-family="sans-serif" font-size="12" lengthAdjust="spacingAndGlyphs" textLength="53" x="520" y="330.1934">Daten in</text><text fill="#000000" font-family="sans-serif" font-size="12" lengthAdjust="spacingAndGlyphs" textLength="157" x="520" y="344.1621">OpenStreetMap erfassen</text><text fill="#000000" font-family="sans-serif" font-size="12" lengthAdjust="spacingAndGlyphs" textLength="103" x="520" y="358.1309">"OpenStreetMap</text><text fill="#000000" font-family="sans-serif" font-size="12" lengthAdjust="spacingAndGlyphs" textLength="78" x="520" y="372.0996">bearbeiten",</text><text fill="#000000" font-family="sans-serif" font-size="12" lengthAdjust="spacingAndGlyphs" textLength="103" x="520" y="386.0684">&gt; gehe zu Start"</text><polygon fill="#FEFECE" filter="url(#f1789mnm45itoj)" points="439.5625,546.5938,451.5625,558.5938,439.5625,570.5938,427.5625,558.5938,439.5625,546.5938" style="stroke: #A80036; stroke-width: 1.5;"/><rect fill="#FEFECE" filter="url(#f1789mnm45itoj)" height="61.9063" rx="12.5" ry="12.5" style="stroke: #A80036; stroke-width: 1.5;" width="204" x="717" y="246.6719"/><text fill="#000000" font-family="sans-serif" font-size="12" lengthAdjust="spacingAndGlyphs" textLength="58" x="727" y="267.8105">Kapitel 3:</text><text fill="#000000" font-family="sans-serif" font-size="12" lengthAdjust="spacingAndGlyphs" textLength="112" x="727" y="281.7793">Daten als externe</text><text fill="#000000" font-family="sans-serif" font-size="12" lengthAdjust="spacingAndGlyphs" textLength="184" x="727" y="295.748">Datenquelle/Datei vorhanden</text><polygon fill="#FEFECE" filter="url(#f1789mnm45itoj)" points="629.2813,576.5938,641.2813,588.5938,629.2813,600.5938,617.2813,588.5938,629.2813,576.5938" style="stroke: #A80036; stroke-width: 1.5;"/><polygon fill="#FEFECE" filter="url(#f1789mnm45itoj)" points="1123.5,185.4531,1231.5,185.4531,1243.5,211.0625,1231.5,236.6719,1123.5,236.6719,1111.5,211.0625,1123.5,185.4531" style="stroke: #A80036; stroke-width: 1.5;"/><text fill="#000000" font-family="sans-serif" font-size="11" lengthAdjust="spacingAndGlyphs" textLength="0" x="1127.5" y="195.6636"/><text fill="#000000" font-family="sans-serif" font-size="11" lengthAdjust="spacingAndGlyphs" textLength="104" x="1123.5" y="208.4683">OSM-Daten immer</text><text fill="#000000" font-family="sans-serif" font-size="11" lengthAdjust="spacingAndGlyphs" textLength="78" x="1123.5" y="221.2729">aktuell laden?</text><text fill="#000000" font-family="sans-serif" font-size="11" lengthAdjust="spacingAndGlyphs" textLength="0" x="1127.5" y="234.0776"/><text fill="#000000" font-family="sans-serif" font-size="11" lengthAdjust="spacingAndGlyphs" textLength="91" x="1020.5" y="208.4683">nein/"snapshot"</text><text fill="#000000" font-family="sans-serif" font-size="11" lengthAdjust="spacingAndGlyphs" textLength="10" x="1243.5" y="208.4683">ja</text><rect fill="#FEFECE" filter="url(#f1789mnm45itoj)" height="75.875" rx="12.5" ry="12.5" style="stroke: #A80036; stroke-width: 1.5;" width="217" x="961" y="246.6719"/><text fill="#000000" font-family="sans-serif" font-size="12" lengthAdjust="spacingAndGlyphs" textLength="70" x="971" y="267.8105">Kapitel 4.1:</text><text fill="#000000" font-family="sans-serif" font-size="12" lengthAdjust="spacingAndGlyphs" textLength="197" x="971" y="281.7793">Einen Snapshot der OSM-Daten</text><text fill="#000000" font-family="sans-serif" font-size="12" lengthAdjust="spacingAndGlyphs" textLength="88" x="971" y="295.748">&gt; Export Data</text><text fill="#000000" font-family="sans-serif" font-size="12" lengthAdjust="spacingAndGlyphs" textLength="68" x="971" y="309.7168">&gt; GeoJSON</text><rect fill="#FEFECE" filter="url(#f1789mnm45itoj)" height="89.8438" rx="12.5" ry="12.5" style="stroke: #A80036; stroke-width: 1.5;" width="175" x="1198" y="246.6719"/><text fill="#000000" font-family="sans-serif" font-size="12" lengthAdjust="spacingAndGlyphs" textLength="66" x="1208" y="267.8105">Kapitel 4.2</text><text fill="#000000" font-family="sans-serif" font-size="12" lengthAdjust="spacingAndGlyphs" textLength="135" x="1208" y="281.7793">Daten immer auf dem</text><text fill="#000000" font-family="sans-serif" font-size="12" lengthAdjust="spacingAndGlyphs" textLength="155" x="1208" y="295.748">aktuellsten Stand halten</text><text fill="#000000" font-family="sans-serif" font-size="12" lengthAdjust="spacingAndGlyphs" textLength="90" x="1208" y="309.7168">&gt;Export Query</text><text fill="#000000" font-family="sans-serif" font-size="12" lengthAdjust="spacingAndGlyphs" textLength="146" x="1208" y="323.6855">&gt; Compact OverpassQL</text><polygon fill="#FEFECE" filter="url(#f1789mnm45itoj)" points="1177.5,342.5156,1189.5,354.5156,1177.5,366.5156,1165.5,354.5156,1177.5,342.5156" style="stroke: #A80036; stroke-width: 1.5;"/><polygon fill="#FEFECE" filter="url(#f1789mnm45itoj)" points="903.3906,606.5938,915.3906,618.5938,903.3906,630.5938,891.3906,618.5938,903.3906,606.5938" style="stroke: #A80036; stroke-width: 1.5;"/><path d="M496.3906,640.5938 L496.3906,680.8594 A0,0 0 0 0 496.3906,680.8594 L873.3906,680.8594 A0,0 0 0 0 873.3906,680.8594 L873.3906,664.7266 L893.3906,660.7266 L873.3906,656.7266 L873.3906,650.5938 L863.3906,640.5938 L496.3906,640.5938 A0,0 0 0 0 496.3906,640.5938 " fill="#FBFB77" filter="url(#f1789mnm45itoj)" style="stroke: #A80036; stroke-width: 1.0;"/><path d="M863.3906,640.5938 L863.3906,650.5938 L873.3906,650.5938 L863.3906,640.5938 " fill="#FBFB77" style="stroke: #A80036; stroke-width: 1.0;"/><text fill="#000000" font-family="sans-serif" font-size="13" lengthAdjust="spacingAndGlyphs" textLength="347" x="502.3906" y="657.6606">In uMap importieren (bzw. als Remote Data einbinden)</text><text fill="#000000" font-family="sans-serif" font-size="13" lengthAdjust="spacingAndGlyphs" textLength="356" x="502.3906" y="672.7935">Weiter gem채ss Anleitung "Geodaten in uMap einbinden"</text><ellipse cx="903.3906" cy="660.7266" fill="none" filter="url(#f1789mnm45itoj)" rx="10" ry="10" style="stroke: #000000; stroke-width: 1.0;"/><ellipse cx="903.8906" cy="661.2266" fill="#000000" filter="url(#f1789mnm45itoj)" rx="6" ry="6" style="stroke: none; stroke-width: 1.0;"/><line style="stroke: #A80036; stroke-width: 1.5;" x1="903.3906" x2="903.3906" y1="32.5664" y2="55.1328"/><polygon fill="#A80036" points="899.3906,45.1328,903.3906,55.1328,907.3906,45.1328,903.3906,49.1328" style="stroke: #A80036; stroke-width: 1.0;"/><line style="stroke: #A80036; stroke-width: 1.5;" x1="93.75" x2="75" y1="369.1094" y2="369.1094"/><line style="stroke: #A80036; stroke-width: 1.5;" x1="75" x2="75" y1="369.1094" y2="404.7188"/><polygon fill="#A80036" points="71,394.7188,75,404.7188,79,394.7188,75,398.7188" style="stroke: #A80036; stroke-width: 1.0;"/><line style="stroke: #A80036; stroke-width: 1.5;" x1="213.75" x2="232.5" y1="369.1094" y2="369.1094"/><line style="stroke: #A80036; stroke-width: 1.5;" x1="232.5" x2="232.5" y1="369.1094" y2="404.7188"/><polygon fill="#A80036" points="228.5,394.7188,232.5,404.7188,236.5,394.7188,232.5,398.7188" style="stroke: #A80036; stroke-width: 1.0;"/><line style="stroke: #A80036; stroke-width: 1.5;" x1="75" x2="75" y1="466.625" y2="498.5938"/><line style="stroke: #A80036; stroke-width: 1.5;" x1="75" x2="141.75" y1="498.5938" y2="498.5938"/><polygon fill="#A80036" points="131.75,494.5938,141.75,498.5938,131.75,502.5938,135.75,498.5938" style="stroke: #A80036; stroke-width: 1.0;"/><line style="stroke: #A80036; stroke-width: 1.5;" x1="232.5" x2="232.5" y1="480.5938" y2="498.5938"/><line style="stroke: #A80036; stroke-width: 1.5;" x1="232.5" x2="165.75" y1="498.5938" y2="498.5938"/><polygon fill="#A80036" points="175.75,494.5938,165.75,498.5938,175.75,502.5938,171.75,498.5938" style="stroke: #A80036; stroke-width: 1.0;"/><line style="stroke: #A80036; stroke-width: 1.5;" x1="228.625" x2="153.75" y1="314.293" y2="314.293"/><line style="stroke: #A80036; stroke-width: 1.5;" x1="153.75" x2="153.75" y1="314.293" y2="343.5"/><polygon fill="#A80036" points="149.75,333.5,153.75,343.5,157.75,333.5,153.75,337.5" style="stroke: #A80036; stroke-width: 1.0;"/><line style="stroke: #A80036; stroke-width: 1.5;" x1="332.625" x2="407.5" y1="314.293" y2="314.293"/><line style="stroke: #A80036; stroke-width: 1.5;" x1="407.5" x2="407.5" y1="314.293" y2="343.5"/><polygon fill="#A80036" points="403.5,333.5,407.5,343.5,411.5,333.5,407.5,337.5" style="stroke: #A80036; stroke-width: 1.0;"/><line style="stroke: #A80036; stroke-width: 1.5;" x1="153.75" x2="153.75" y1="510.5938" y2="528.5938"/><line style="stroke: #A80036; stroke-width: 1.5;" x1="153.75" x2="268.625" y1="528.5938" y2="528.5938"/><polygon fill="#A80036" points="258.625,524.5938,268.625,528.5938,258.625,532.5938,262.625,528.5938" style="stroke: #A80036; stroke-width: 1.0;"/><line style="stroke: #A80036; stroke-width: 1.5;" x1="407.5" x2="407.5" y1="419.375" y2="528.5938"/><line style="stroke: #A80036; stroke-width: 1.5;" x1="407.5" x2="292.625" y1="528.5938" y2="528.5938"/><polygon fill="#A80036" points="302.625,524.5938,292.625,528.5938,302.625,532.5938,298.625,528.5938" style="stroke: #A80036; stroke-width: 1.0;"/><line style="stroke: #A80036; stroke-width: 1.5;" x1="370.0625" x2="280.625" y1="265.8789" y2="265.8789"/><line style="stroke: #A80036; stroke-width: 1.5;" x1="280.625" x2="280.625" y1="265.8789" y2="295.0859"/><polygon fill="#A80036" points="276.625,285.0859,280.625,295.0859,284.625,285.0859,280.625,289.0859" style="stroke: #A80036; stroke-width: 1.0;"/><line style="stroke: #A80036; stroke-width: 1.5;" x1="509.0625" x2="598.5" y1="265.8789" y2="265.8789"/><line style="stroke: #A80036; stroke-width: 1.5;" x1="598.5" x2="598.5" y1="265.8789" y2="295.0859"/><polygon fill="#A80036" points="594.5,285.0859,598.5,295.0859,602.5,285.0859,598.5,289.0859" style="stroke: #A80036; stroke-width: 1.0;"/><line style="stroke: #A80036; stroke-width: 1.5;" x1="280.625" x2="280.625" y1="540.5938" y2="558.5938"/><line style="stroke: #A80036; stroke-width: 1.5;" x1="280.625" x2="427.5625" y1="558.5938" y2="558.5938"/><polygon fill="#A80036" points="417.5625,554.5938,427.5625,558.5938,417.5625,562.5938,421.5625,558.5938" style="stroke: #A80036; stroke-width: 1.0;"/><line style="stroke: #A80036; stroke-width: 1.5;" x1="598.5" x2="598.5" y1="398.8984" y2="558.5938"/><line style="stroke: #A80036; stroke-width: 1.5;" x1="598.5" x2="451.5625" y1="558.5938" y2="558.5938"/><polygon fill="#A80036" points="461.5625,554.5938,451.5625,558.5938,461.5625,562.5938,457.5625,558.5938" style="stroke: #A80036; stroke-width: 1.0;"/><line style="stroke: #A80036; stroke-width: 1.5;" x1="549.7813" x2="439.5625" y1="211.0625" y2="211.0625"/><line style="stroke: #A80036; stroke-width: 1.5;" x1="439.5625" x2="439.5625" y1="211.0625" y2="246.6719"/><polygon fill="#A80036" points="435.5625,236.6719,439.5625,246.6719,443.5625,236.6719,439.5625,240.6719" style="stroke: #A80036; stroke-width: 1.0;"/><line style="stroke: #A80036; stroke-width: 1.5;" x1="708.7813" x2="819" y1="211.0625" y2="211.0625"/><line style="stroke: #A80036; stroke-width: 1.5;" x1="819" x2="819" y1="211.0625" y2="246.6719"/><polygon fill="#A80036" points="815,236.6719,819,246.6719,823,236.6719,819,240.6719" style="stroke: #A80036; stroke-width: 1.0;"/><line style="stroke: #A80036; stroke-width: 1.5;" x1="439.5625" x2="439.5625" y1="570.5938" y2="588.5938"/><line style="stroke: #A80036; stroke-width: 1.5;" x1="439.5625" x2="617.2813" y1="588.5938" y2="588.5938"/><polygon fill="#A80036" points="607.2813,584.5938,617.2813,588.5938,607.2813,592.5938,611.2813,588.5938" style="stroke: #A80036; stroke-width: 1.0;"/><line style="stroke: #A80036; stroke-width: 1.5;" x1="819" x2="819" y1="308.5781" y2="588.5938"/><line style="stroke: #A80036; stroke-width: 1.5;" x1="819" x2="641.2813" y1="588.5938" y2="588.5938"/><polygon fill="#A80036" points="651.2813,584.5938,641.2813,588.5938,651.2813,592.5938,647.2813,588.5938" style="stroke: #A80036; stroke-width: 1.0;"/><line style="stroke: #A80036; stroke-width: 1.5;" x1="1111.5" x2="1069.5" y1="211.0625" y2="211.0625"/><line style="stroke: #A80036; stroke-width: 1.5;" x1="1069.5" x2="1069.5" y1="211.0625" y2="246.6719"/><polygon fill="#A80036" points="1065.5,236.6719,1069.5,246.6719,1073.5,236.6719,1069.5,240.6719" style="stroke: #A80036; stroke-width: 1.0;"/><line style="stroke: #A80036; stroke-width: 1.5;" x1="1243.5" x2="1285.5" y1="211.0625" y2="211.0625"/><line style="stroke: #A80036; stroke-width: 1.5;" x1="1285.5" x2="1285.5" y1="211.0625" y2="246.6719"/><polygon fill="#A80036" points="1281.5,236.6719,1285.5,246.6719,1289.5,236.6719,1285.5,240.6719" style="stroke: #A80036; stroke-width: 1.0;"/><line style="stroke: #A80036; stroke-width: 1.5;" x1="1069.5" x2="1069.5" y1="322.5469" y2="354.5156"/><line style="stroke: #A80036; stroke-width: 1.5;" x1="1069.5" x2="1165.5" y1="354.5156" y2="354.5156"/><polygon fill="#A80036" points="1155.5,350.5156,1165.5,354.5156,1155.5,358.5156,1159.5,354.5156" style="stroke: #A80036; stroke-width: 1.0;"/><line style="stroke: #A80036; stroke-width: 1.5;" x1="1285.5" x2="1285.5" y1="336.5156" y2="354.5156"/><line style="stroke: #A80036; stroke-width: 1.5;" x1="1285.5" x2="1189.5" y1="354.5156" y2="354.5156"/><polygon fill="#A80036" points="1199.5,350.5156,1189.5,354.5156,1199.5,358.5156,1195.5,354.5156" style="stroke: #A80036; stroke-width: 1.0;"/><line style="stroke: #A80036; stroke-width: 1.5;" x1="836.3906" x2="629.2813" y1="156.2461" y2="156.2461"/><line style="stroke: #A80036; stroke-width: 1.5;" x1="629.2813" x2="629.2813" y1="156.2461" y2="185.4531"/><polygon fill="#A80036" points="625.2813,175.4531,629.2813,185.4531,633.2813,175.4531,629.2813,179.4531" style="stroke: #A80036; stroke-width: 1.0;"/><line style="stroke: #A80036; stroke-width: 1.5;" x1="970.3906" x2="1177.5" y1="156.2461" y2="156.2461"/><line style="stroke: #A80036; stroke-width: 1.5;" x1="1177.5" x2="1177.5" y1="156.2461" y2="185.4531"/><polygon fill="#A80036" points="1173.5,175.4531,1177.5,185.4531,1181.5,175.4531,1177.5,179.4531" style="stroke: #A80036; stroke-width: 1.0;"/><line style="stroke: #A80036; stroke-width: 1.5;" x1="629.2813" x2="629.2813" y1="600.5938" y2="618.5938"/><line style="stroke: #A80036; stroke-width: 1.5;" x1="629.2813" x2="891.3906" y1="618.5938" y2="618.5938"/><polygon fill="#A80036" points="881.3906,614.5938,891.3906,618.5938,881.3906,622.5938,885.3906,618.5938" style="stroke: #A80036; stroke-width: 1.0;"/><line style="stroke: #A80036; stroke-width: 1.5;" x1="1177.5" x2="1177.5" y1="366.5156" y2="618.5938"/><line style="stroke: #A80036; stroke-width: 1.5;" x1="1177.5" x2="915.3906" y1="618.5938" y2="618.5938"/><polygon fill="#A80036" points="925.3906,614.5938,915.3906,618.5938,925.3906,622.5938,921.3906,618.5938" style="stroke: #A80036; stroke-width: 1.0;"/><line style="stroke: #A80036; stroke-width: 1.5;" x1="903.3906" x2="903.3906" y1="117.0391" y2="137.0391"/><polygon fill="#A80036" points="899.3906,127.0391,903.3906,137.0391,907.3906,127.0391,903.3906,131.0391" style="stroke: #A80036; stroke-width: 1.0;"/><line style="stroke: #A80036; stroke-width: 1.5;" x1="903.3906" x2="903.3906" y1="630.5938" y2="650.7266"/><polygon fill="#A80036" points="899.3906,640.7266,903.3906,650.7266,907.3906,640.7266,903.3906,644.7266" style="stroke: #A80036; stroke-width: 1.0;"/><!--
@startuml
start
note left
  "Geodaten in uMap einbinden" Start
end note

:Kapitel 1:\nGeodaten in uMap einbinden \n(z.B. mit taginfo/wiki/tagfinder);

if (\nIn OSM vorhanden?\n) then (nein)
  if (\nAls externe Datenquelle\ngefunden?\n) then (nein, selber erfassen)
    if (\nKann etwas warten?\n) then (nein)
      if (\nViele Objekte?\n) then (nein)
        if (\nAttribute flexibel \nbearbeiten?\n) then (nein)
          :Kapitel 2.1:\nDaten manuell in \nuMap erfassen;
        else (ja)
          :Kapitel 2.2:\nGeodaten erfassen \ngeojson.io\n> Export GeoJSON;
        endif
      else (ja)
        :Kapitel 2.2:\nGeodaten erfassen \n"QGIS Einf체hrung",\n> Export GeoJSON;
      endif
    else (ja)
      :Kapitel 2.3:\nDaten in \nOpenStreetMap erfassen\n"OpenStreetMap \nbearbeiten",\n> gehe zu Start";
    endif
  else (ja)
    :Kapitel 3:\nDaten als externe \nDatenquelle/Datei vorhanden;
  endif
else (ja)
  if (\nOSM-Daten immer \naktuell laden?\n) then (nein/"snapshot")
    :Kapitel 4.1:\nEinen Snapshot der OSM-Daten\n> Export Data\n> GeoJSON;
  else (ja)
    :Kapitel 4.2\nDaten immer auf dem \naktuellsten Stand halten\n>Export Query \n> Compact OverpassQL;
  endif
endif

stop
note left
  In uMap importieren (bzw. als Remote Data einbinden)
  Weiter gem채ss Anleitung "Geodaten in uMap einbinden"
end note
@enduml

PlantUML version 1.2018.11(Sat Sep 22 16:43:53 UTC 2018)
(GPL source distribution)
Java Runtime: Java(TM) SE Runtime Environment
JVM: Java HotSpot(TM) 64-Bit Server VM
Java Version: 1.7.0_25-b15
Operating System: Linux
Default Encoding: UTF-8
Language: en
Country: US
--></g></svg>