<svg id="Logo" xmlns="http://www.w3.org/2000/svg" viewBox="0 0 1461.12 996.93"><defs><style>.cls-1{fill:#61656a;}.cls-2{fill:#b2b2b2;}.cls-3{fill:#fff;}.cls-4{fill:#fbdd51;}</style></defs><title>openschoolmaps</title><path class="cls-1" d="M980.58,1172.4,501.7,984.3a20.92,20.92,0,0,0-28.57,19.47V1349a149.93,149.93,0,0,0,149.93,149.92h751.3A149.93,149.93,0,0,0,1524.29,1349V1006.49A20.92,20.92,0,0,0,1495.72,987L1023.77,1172.4A59.09,59.09,0,0,1,980.58,1172.4Z" transform="translate(-269.88 -502)"/><path class="cls-2" d="M1186.2,571.25l-165.9-65.16a59.06,59.06,0,0,0-43.18,0l-694,272.57c-17.7,7-17.7,32,0,38.94l136.57,53.65Z" transform="translate(-269.88 -502)"/><path class="cls-2" d="M993.83,725.82,520.83,911l459.75,180.57a59.09,59.09,0,0,0,43.19,0l450.58-177Z" transform="translate(-269.88 -502)"/><path class="cls-2" d="M1717.73,780,1287.29,611,1095,686.24,1575.32,874.9,1717.73,819C1735.42,812,1735.42,787,1717.73,780Z" transform="translate(-269.88 -502)"/><polygon class="cls-3" points="1305.3 373.07 741.88 151.78 714.89 220.49 1204.15 412.66 1305.3 373.07"/><polygon class="cls-4" points="916.59 69.17 149.8 369.29 250.9 409 1017.69 108.88 916.59 69.17"/></svg>